<?xml version="1.0" encoding="utf-8"?>
<!-- Generator: Adobe Illustrator 28.2.0, SVG Export Plug-In . SVG Version: 6.00 Build 0)  -->
<svg version="1.1" xmlns="http://www.w3.org/2000/svg" xmlns:xlink="http://www.w3.org/1999/xlink" x="0px" y="0px"
	 viewBox="0 0 314.1 472.3" style="enable-background:new 0 0 314.1 472.3;" xml:space="preserve">
<style type="text/css">
	.st0{fill:#FFFFFF;}
	.st1{fill:none;}
	.st2{fill:#55386E;}
	.st3{fill:#A381BD;}
	.st4{fill:none;stroke:#000000;stroke-miterlimit:10;}
	.st5{enable-background:new    ;}
	.st6{font-family:'Arial-BoldMT';}
	.st7{font-size:12px;}
	.st8{fill:#181818;}
	.st9{font-family:'ArialMT';}
	.st10{font-size:10px;}
	.st11{font-size:11px;}
	.st12{font-size:6.204px;}
	.st13{fill:#656565;}
	.st14{font-family:'Arial-ItalicMT';}
	.st15{fill:#888888;}
	.st16{font-size:5.687px;}
</style>
<g id="desktop">
	<rect x="-923.9" y="-5.4" class="st0" width="638.3" height="878.5"/>
	<rect x="-918.4" y="-34.9" class="st1" width="600" height="908.2"/>
	<text transform="matrix(1 0 0 1 -922.4448 16.0381)" class="st6" style="font-size:22px;">Female Genital Mutilation Remains Prevalent in 31 Countries</text>
	<text transform="matrix(1 0 0 1 -918.4448 39.0381)" class="st8 st9" style="font-size:14px;">UNICEF data shows percentage of FGM prevalence in practicing countries</text>
	<text transform="matrix(1 0 0 1 -901.4448 65.46)" class="st8 st9 st7">Girls</text>
	<text transform="matrix(1 0 0 1 -873.7983 65.46)" class="st8 st9 st7">aged 0 to 14</text>
	<text transform="matrix(1 0 0 1 -781.0541 65.46)" class="st8 st9 st7">Women</text>
	<text transform="matrix(1 0 0 1 -736.9427 65.46)" class="st8 st9 st7">aged 15 to 49</text>
	<text transform="matrix(1 0 0 1 -786.806 96.0537)" class="st8 st9 st7">Mali</text>
	<rect x="-759.8" y="81.3" class="st2" width="198.4" height="20"/>
	<rect x="-561.3" y="81.3" class="st3" width="241.9" height="20"/>
	<text transform="matrix(1 0 0 1 -803.4995 120.0537)" class="st8 st9 st7">Guinea</text>
	<rect x="-759.8" y="105.3" class="st2" width="106" height="20"/>
	<rect x="-653.8" y="105.3" class="st3" width="258.2" height="20"/>
	<text transform="matrix(1 0 0 1 -804.8237 144.0537)" class="st8 st9 st7">Djibouti</text>
	<rect x="-759.8" y="129.3" class="st2" width="84.3" height="20"/>
	<rect x="-675.5" y="129.3" class="st3" width="244.7" height="20"/>
	<text transform="matrix(1 0 0 1 -806.8218 168.0537)" class="st8 st9 st7">Gambia</text>
	<rect x="-759.8" y="153.3" class="st2" width="125" height="20"/>
	<rect x="-634.7" y="153.3" class="st3" width="198.4" height="20"/>
	<text transform="matrix(1 0 0 1 -799.5034 192.0537)" class="st8 st9 st7">Sudan</text>
	<rect x="-759.8" y="177.3" class="st2" width="81.5" height="20"/>
	<rect x="-678.2" y="177.3" class="st3" width="236.5" height="20"/>
	<text transform="matrix(1 0 0 1 -800.1479 216.0537)" class="st8 st9 st7">Eritrea</text>
	<rect x="-759.8" y="201.3" class="st2" width="89.7" height="20"/>
	<rect x="-670.1" y="201.3" class="st3" width="225.6" height="20"/>
	<text transform="matrix(1 0 0 1 -820.8315 240.0537)" class="st8 st9 st7">Mauritania</text>
	<rect x="-759.8" y="225.3" class="st2" width="122.3" height="20"/>
	<rect x="-637.4" y="225.3" class="st3" width="174" height="20"/>
	<text transform="matrix(1 0 0 1 -795.4897 264.0537)" class="st8 st9 st7">Egypt</text>
	<rect x="-759.8" y="249.3" class="st2" width="38.1" height="20"/>
	<rect x="-721.7" y="249.3" class="st3" width="236.5" height="20"/>
	<text transform="matrix(1 0 0 1 -808.1577 288.0537)" class="st8 st9 st7">Somalia</text>
	<rect x="-759.8" y="273.3" class="st2" width="0" height="20"/>
	<rect x="-759.8" y="273.3" class="st3" width="269.1" height="20"/>
	<text transform="matrix(1 0 0 1 -833.517 312.0537)" class="st8 st9 st7">Sierra Leone</text>
	<rect x="-759.8" y="297.3" class="st2" width="21.8" height="20"/>
	<rect x="-738" y="297.3" class="st3" width="225.6" height="20"/>
	<text transform="matrix(1 0 0 1 -843.5131 336.0537)" class="st8 st9 st7">Guinea-Bissau</text>
	<rect x="-759.8" y="321.3" class="st2" width="81.5" height="20"/>
	<rect x="-678.2" y="321.3" class="st3" width="141.4" height="20"/>
	<text transform="matrix(1 0 0 1 -808.1694 360.0537)" class="st8 st9 st7">Ethiopia</text>
	<rect x="-759.8" y="345.3" class="st2" width="43.5" height="20"/>
	<rect x="-716.3" y="345.3" class="st3" width="176.7" height="20"/>
	<text transform="matrix(1 0 0 1 -835.5034 384.0537)" class="st8 st9 st7">Burkina Faso</text>
	<rect x="-759.8" y="369.3" class="st2" width="29.9" height="20"/>
	<rect x="-729.9" y="369.3" class="st3" width="184.9" height="20"/>
	<text transform="matrix(1 0 0 1 -816.847 408.0537)" class="st8 st9 st7">Indonesia</text>
	<rect x="-759.8" y="393.3" class="st2" width="133.2" height="20"/>
	<rect x="-759.8" y="393.3" class="st3" width="0" height="20"/>
	<text transform="matrix(1 0 0 1 -829.5034 432.0537)" class="st8 st9 st7">Cote dIvoire</text>
	<rect x="-759.8" y="417.3" class="st2" width="27.2" height="20"/>
	<rect x="-732.6" y="417.3" class="st3" width="100.6" height="20"/>
	<text transform="matrix(1 0 0 1 -808.8431 456.0537)" class="st8 st9 st7">Senegal</text>
	<rect x="-759.8" y="441.3" class="st2" width="43.5" height="20"/>
	<rect x="-716.3" y="441.3" class="st3" width="68" height="20"/>
	<text transform="matrix(1 0 0 1 -793.4916 480.0537)" class="st8 st9 st7">Chad</text>
	<rect x="-759.8" y="465.3" class="st2" width="19" height="20"/>
	<rect x="-740.7" y="465.3" class="st3" width="92.4" height="20"/>
	<text transform="matrix(1 0 0 1 -801.7241 504.0537)" class="st8 st9 st7">Yemen</text>
	<rect x="-759.8" y="489.3" class="st2" width="40.8" height="20"/>
	<rect x="-719" y="489.3" class="st3" width="51.7" height="20"/>
	<text transform="matrix(1 0 0 1 -800.8276 528.0538)" class="st8 st9 st7">Liberia</text>
	<rect x="-759.8" y="513.3" class="st2" width="0" height="20"/>
	<rect x="-759.8" y="513.3" class="st3" width="87" height="20"/>
	<text transform="matrix(1 0 0 1 -798.8296 552.0538)" class="st8 st9 st7">Kenya</text>
	<rect x="-759.8" y="537.3" class="st2" width="8.2" height="20"/>
	<rect x="-751.6" y="537.3" class="st3" width="57.1" height="20"/>
	<text transform="matrix(1 0 0 1 -893.5345 576.0538)" class="st8 st9 st7">Central African Republic</text>
	<rect x="-759.8" y="561.3" class="st2" width="2.7" height="20"/>
	<rect x="-757.1" y="561.3" class="st3" width="59.8" height="20"/>
	<text transform="matrix(1 0 0 1 -802.8198 600.0538)" class="st8 st9 st7">Nigeria</text>
	<rect x="-759.8" y="585.3" class="st2" width="21.8" height="20"/>
	<rect x="-738" y="585.3" class="st3" width="40.8" height="20"/>
	<text transform="matrix(1 0 0 1 -812.1537 624.0538)" class="st8 st9 st7">Maldives</text>
	<rect x="-759.8" y="609.3" class="st2" width="2.7" height="20"/>
	<rect x="-757.1" y="609.3" class="st3" width="35.4" height="20"/>
	<text transform="matrix(1 0 0 1 -914.0132 648.0538)" class="st8 st9 st7">United Republic of Tanzania</text>
	<rect x="-759.8" y="633.3" class="st2" width="0" height="20"/>
	<rect x="-759.8" y="633.3" class="st3" width="27.2" height="20"/>
	<text transform="matrix(1 0 0 1 -795.4955 672.0538)" class="st8 st9 st7">Benin</text>
	<rect x="-759.8" y="657.3" class="st2" width="0" height="20"/>
	<rect x="-759.8" y="657.3" class="st3" width="24.5" height="20"/>
	<text transform="matrix(1 0 0 1 -785.4819 696.0538)" class="st8 st9 st7">Iraq</text>
	<rect x="-759.8" y="681.3" class="st2" width="2.7" height="20"/>
	<rect x="-757.1" y="681.3" class="st3" width="19" height="20"/>
	<text transform="matrix(1 0 0 1 -790.8257 720.0538)" class="st8 st9 st7">Togo</text>
	<rect x="-759.8" y="705.3" class="st2" width="0" height="20"/>
	<rect x="-759.8" y="705.3" class="st3" width="8.2" height="20"/>
	<text transform="matrix(1 0 0 1 -793.48 744.0538)" class="st8 st9 st7">Niger</text>
	<rect x="-759.8" y="729.3" class="st2" width="0" height="20"/>
	<rect x="-759.8" y="729.3" class="st3" width="5.4" height="20"/>
	<text transform="matrix(1 0 0 1 -800.8334 768.0538)" class="st8 st9 st7">Ghana</text>
	<rect x="-759.8" y="753.3" class="st2" width="0" height="20"/>
	<rect x="-759.8" y="753.3" class="st3" width="5.4" height="20"/>
	<text transform="matrix(1 0 0 1 -806.8392 792.0538)" class="st8 st9 st7">Uganda</text>
	<rect x="-759.8" y="777.3" class="st2" width="2.7" height="20"/>
	<rect x="-759.8" y="777.3" class="st3" width="0" height="20"/>
	<text transform="matrix(1 0 0 1 -820.8315 816.0538)" class="st8 st9 st7">Cameroon</text>
	<rect x="-759.8" y="801.3" class="st2" width="0" height="20"/>
	<rect x="-759.8" y="801.3" class="st3" width="2.7" height="20"/>
	<rect x="-918.4" y="53.9" class="st2" width="14" height="14"/>
	<rect x="-798" y="53.9" class="st3" width="14" height="14"/>
	<text transform="matrix(1 0 0 1 -754.8041 96.2568)" class="st0 st9 st7">73</text>
	<text transform="matrix(1 0 0 1 -556.3823 96.2568)" class="st0 st9 st7">89</text>
	<text transform="matrix(1 0 0 1 -754.8041 120.2568)" class="st0 st9 st7">39</text>
	<text transform="matrix(1 0 0 1 -648.8041 120.2568)" class="st0 st9 st7">95</text>
	<text transform="matrix(1 0 0 1 -754.8041 144.2568)" class="st0 st9 st7">31</text>
	<text transform="matrix(1 0 0 1 -670.5541 144.2568)" class="st0 st9 st7">90</text>
	<text transform="matrix(1 0 0 1 -754.8041 168.2568)" class="st0 st9 st7">46</text>
	<text transform="matrix(1 0 0 1 -629.7728 168.2568)" class="st0 st9 st7">73</text>
	<text transform="matrix(1 0 0 1 -754.8041 192.2568)" class="st0 st9 st7">30</text>
	<text transform="matrix(1 0 0 1 -673.2728 192.2568)" class="st0 st9 st7">87</text>
	<text transform="matrix(1 0 0 1 -754.8041 216.2568)" class="st0 st9 st7">33</text>
	<text transform="matrix(1 0 0 1 -665.1166 216.2568)" class="st0 st9 st7">83</text>
	<text transform="matrix(1 0 0 1 -754.8041 240.2568)" class="st0 st9 st7">45</text>
	<text transform="matrix(1 0 0 1 -632.4916 240.2568)" class="st0 st9 st7">64</text>
	<text transform="matrix(1 0 0 1 -754.8041 264.2568)" class="st0 st9 st7">14</text>
	<text transform="matrix(1 0 0 1 -716.7573 264.2568)" class="st0 st9 st7">87</text>
	<text transform="matrix(1 0 0 1 -754.8041 288.2568)" class="st0 st9 st7">99</text>
	<text transform="matrix(1 0 0 1 -754.8041 312.2568)" class="st0 st9 st7">8</text>
	<text transform="matrix(1 0 0 1 -733.0698 312.2568)" class="st0 st9 st7">83</text>
	<text transform="matrix(1 0 0 1 -754.8041 336.2568)" class="st0 st9 st7">30</text>
	<text transform="matrix(1 0 0 1 -673.2728 336.2568)" class="st0 st9 st7">52</text>
	<text transform="matrix(1 0 0 1 -754.8041 360.2568)" class="st0 st9 st7">16</text>
	<text transform="matrix(1 0 0 1 -711.3198 360.2568)" class="st0 st9 st7">65</text>
	<text transform="matrix(1 0 0 1 -754.8041 384.2568)" class="st0 st9 st7">11</text>
	<text transform="matrix(1 0 0 1 -724.9136 384.2568)" class="st0 st9 st7">68</text>
	<text transform="matrix(1 0 0 1 -754.8041 408.2568)" class="st0 st9 st7">49</text>
	<text transform="matrix(1 0 0 1 -754.8041 432.2568)" class="st0 st9 st7">10</text>
	<text transform="matrix(1 0 0 1 -727.6323 432.2568)" class="st0 st9 st7">37</text>
	<text transform="matrix(1 0 0 1 -754.8041 456.2568)" class="st0 st9 st7">16</text>
	<text transform="matrix(1 0 0 1 -711.3198 456.2568)" class="st0 st9 st7">25</text>
	<text transform="matrix(1 0 0 1 -754.8041 480.2568)" class="st0 st9 st7">7</text>
	<text transform="matrix(1 0 0 1 -735.7886 480.2568)" class="st0 st9 st7">34</text>
	<text transform="matrix(1 0 0 1 -754.8041 504.2568)" class="st0 st9 st7">15</text>
	<text transform="matrix(1 0 0 1 -714.0386 504.2568)" class="st0 st9 st7">19</text>
	<text transform="matrix(1 0 0 1 -754.8041 528.2568)" class="st0 st9 st7">32</text>
	<text transform="matrix(1 0 0 1 -746.6636 552.2568)" class="st0 st9 st7">21</text>
	<text transform="matrix(1 0 0 1 -752.101 576.2568)" class="st0 st9 st7">22</text>
	<text transform="matrix(1 0 0 1 -754.8041 600.2568)" class="st0 st9 st7">8</text>
	<text transform="matrix(1 0 0 1 -733.0698 600.2568)" class="st0 st9 st7">15</text>
	<text transform="matrix(1 0 0 1 -752.101 624.2568)" class="st0 st9 st7">13</text>
	<text transform="matrix(1 0 0 1 -754.8041 648.2568)" class="st0 st9 st7">10</text>
	<text transform="matrix(1 0 0 1 -754.8041 672.2568)" class="st0 st9 st7">9</text>
	<text transform="matrix(1 0 0 1 -752.101 696.2568)" class="st0 st9 st7">7</text>
	<text transform="matrix(1 0 0 1 -918.4448 853.2568)" class="st13 st14 st7">Data last updated in May 2023</text>
	<text transform="matrix(1 0 0 1 -918.4448 871.2568)" class="st15 st9 st11">Chart:</text>
	<text transform="matrix(1 0 0 1 -885.7557 871.2568)" class="st15 st9 st11">Katrina Ventura</text>
	<text transform="matrix(1 0 0 1 -807.1877 871.2568)" class="st15 st9 st11">•</text>
	<text transform="matrix(1 0 0 1 -800.5977 871.2568)" class="st15 st9 st11">Source:</text>
	<text transform="matrix(1 0 0 1 -759.954 871.2568)" class="st15 st9 st11">UNICEF</text>
	<text transform="matrix(1 0 0 1 -716.2712 871.2568)" class="st15 st9 st11">•</text>
	<text transform="matrix(1 0 0 1 -709.6812 871.2568)" class="st15 st9 st11">Created with</text>
	<text transform="matrix(1 0 0 1 -645.1953 871.2568)" class="st15 st9 st11">Datawrapper</text>
	<line class="st4" x1="-626.6" y1="403.3" x2="-532.5" y2="403.3"/>
	<polygon points="-534.5,405 -532.8,403.3 -534.5,401.6 -533.1,401.6 -531.4,403.3 -533.1,405 	"/>
	<text transform="matrix(1 0 0 1 -524.2659 403.3975)" class="st9 st7">Many girls in Indonesia get</text>
	<text transform="matrix(1 0 0 1 -524.2659 417.7975)" class="st9 st7">cut soon after they are born</text>
	<line class="st4" x1="-721.3" y1="711.5" x2="-703.9" y2="711.5"/>
	<line class="st4" x1="-703.9" y1="821.3" x2="-703.9" y2="711.5"/>
	<line class="st4" x1="-721.3" y1="821.3" x2="-703.9" y2="821.3"/>
	<text transform="matrix(1 0 0 1 -682.3353 759.3173)" class="st9 st7">FGM is lowest in these countries</text>
	<text transform="matrix(1 0 0 1 -682.3353 773.7173)" class="st9 st7">with less than 4% prevalence </text>
</g>
<g id="mobile">
	<rect x="2.8" y="0.6" class="st1" width="310.2" height="469.5"/>
	<text transform="matrix(1 0 0 1 1.606 11.2378)" class="st5"><tspan x="0" y="0" class="st6 st7">Female Genital Mutilation Remains Prevalent in </tspan><tspan x="0" y="14.4" class="st6 st7">31 Countries</tspan></text>
	<text transform="matrix(1 0 0 1 2.8443 38.8468)" class="st8 st9 st10">UNICEF data shows percentage of FGM prevalence</text>
	<text transform="matrix(1 0 0 1 11.6324 52.5065)" class="st8 st9 st10">Girls</text>
	<text transform="matrix(1 0 0 1 34.9263 52.5065)" class="st8 st9 st10">aged 0 to 14</text>
	<text transform="matrix(1 0 0 1 110.8746 52.5065)" class="st8 st9 st10">Women</text>
	<text transform="matrix(1 0 0 1 148.4539 52.5065)" class="st8 st9 st10">aged 15 to 49</text>
	<text transform="matrix(1 0 0 1 61.5416 70.3239)" class="st8 st9 st11">Mali</text>
	<rect x="84.8" y="60.7" class="st2" width="102.6" height="10.3"/>
	<rect x="187.5" y="60.7" class="st3" width="125.1" height="10.3"/>
	<text transform="matrix(1 0 0 1 46.2388 82.7316)" class="st8 st9 st11">Guinea</text>
	<rect x="84.8" y="73.1" class="st2" width="54.8" height="10.3"/>
	<rect x="139.6" y="73.1" class="st3" width="133.5" height="10.3"/>
	<text transform="matrix(1 0 0 1 45.025 95.1393)" class="st8 st9 st11">Djibouti</text>
	<rect x="84.8" y="85.5" class="st2" width="43.6" height="10.3"/>
	<rect x="128.4" y="85.5" class="st3" width="126.5" height="10.3"/>
	<text transform="matrix(1 0 0 1 43.1929 107.5475)" class="st8 st9 st11">Gambia</text>
	<rect x="84.8" y="97.9" class="st2" width="64.6" height="10.3"/>
	<rect x="149.5" y="97.9" class="st3" width="102.6" height="10.3"/>
	<text transform="matrix(1 0 0 1 49.9019 119.9557)" class="st8 st9 st11">Sudan</text>
	<rect x="84.8" y="110.3" class="st2" width="42.1" height="10.3"/>
	<rect x="127" y="110.3" class="st3" width="122.3" height="10.3"/>
	<text transform="matrix(1 0 0 1 49.3111 132.3634)" class="st8 st9 st11">Eritrea</text>
	<rect x="84.8" y="122.7" class="st2" width="46.4" height="10.3"/>
	<rect x="131.2" y="122.7" class="st3" width="116.6" height="10.3"/>
	<text transform="matrix(1 0 0 1 30.3511 144.7711)" class="st8 st9 st11">Mauritania</text>
	<rect x="84.8" y="135.1" class="st2" width="63.2" height="10.3"/>
	<rect x="148.1" y="135.1" class="st3" width="90" height="10.3"/>
	<text transform="matrix(1 0 0 1 53.5806 157.1793)" class="st8 st9 st11">Egypt</text>
	<rect x="84.8" y="147.5" class="st2" width="19.7" height="10.3"/>
	<rect x="104.5" y="147.5" class="st3" width="122.3" height="10.3"/>
	<text transform="matrix(1 0 0 1 41.9693 169.5875)" class="st8 st9 st11">Somalia</text>
	<rect x="84.8" y="159.9" class="st2" width="0" height="10.3"/>
	<rect x="84.8" y="159.9" class="st3" width="139.1" height="10.3"/>
	<text transform="matrix(1 0 0 1 18.7232 181.9952)" class="st8 st9 st11">Sierra Leone</text>
	<rect x="84.8" y="172.4" class="st2" width="11.3" height="10.3"/>
	<rect x="96.1" y="172.4" class="st3" width="116.6" height="10.3"/>
	<text transform="matrix(1 0 0 1 9.5591 194.403)" class="st8 st9 st11">Guinea-Bissau</text>
	<rect x="84.8" y="184.8" class="st2" width="42.1" height="10.3"/>
	<rect x="127" y="184.8" class="st3" width="73.1" height="10.3"/>
	<text transform="matrix(1 0 0 1 41.9576 206.8112)" class="st8 st9 st11">Ethiopia</text>
	<rect x="84.8" y="197.2" class="st2" width="22.5" height="10.3"/>
	<rect x="107.3" y="197.2" class="st3" width="91.4" height="10.3"/>
	<text transform="matrix(1 0 0 1 16.9019 219.2194)" class="st8 st9 st11">Burkina Faso</text>
	<rect x="84.8" y="209.6" class="st2" width="15.5" height="10.3"/>
	<rect x="100.3" y="209.6" class="st3" width="95.6" height="10.3"/>
	<text transform="matrix(1 0 0 1 34.0035 231.6271)" class="st8 st9 st11">Indonesia</text>
	<rect x="84.8" y="222" class="st2" width="68.9" height="10.3"/>
	<rect x="84.8" y="222" class="st3" width="0" height="10.3"/>
	<text transform="matrix(1 0 0 1 22.4019 244.0348)" class="st8 st9 st11">Cote dIvoire</text>
	<rect x="84.8" y="234.4" class="st2" width="14.1" height="10.3"/>
	<rect x="98.9" y="234.4" class="st3" width="52" height="10.3"/>
	<text transform="matrix(1 0 0 1 41.3404 256.443)" class="st8 st9 st11">Senegal</text>
	<rect x="84.8" y="246.8" class="st2" width="22.5" height="10.3"/>
	<rect x="107.3" y="246.8" class="st3" width="35.2" height="10.3"/>
	<text transform="matrix(1 0 0 1 55.4127 268.8512)" class="st8 st9 st11">Chad</text>
	<rect x="84.8" y="259.2" class="st2" width="9.8" height="10.3"/>
	<rect x="94.7" y="259.2" class="st3" width="47.8" height="10.3"/>
	<text transform="matrix(1 0 0 1 47.8658 281.2589)" class="st8 st9 st11">Yemen</text>
	<rect x="84.8" y="271.6" class="st2" width="21.1" height="10.3"/>
	<rect x="105.9" y="271.6" class="st3" width="26.7" height="10.3"/>
	<text transform="matrix(1 0 0 1 48.6881 293.6666)" class="st8 st9 st11">Liberia</text>
	<rect x="84.8" y="284" class="st2" width="0" height="10.3"/>
	<rect x="84.8" y="284" class="st3" width="45" height="10.3"/>
	<text transform="matrix(1 0 0 1 50.5201 306.0748)" class="st8 st9 st11">Kenya</text>
	<rect x="84.8" y="296.4" class="st2" width="4.2" height="10.3"/>
	<rect x="89.1" y="296.4" class="st3" width="29.5" height="10.3"/>
	<text transform="matrix(1 0 0 1 -36.2563 318.483)" class="st8 st9 st11">                            C.A.R.</text>
	<rect x="84.8" y="308.8" class="st2" width="1.4" height="10.3"/>
	<rect x="86.2" y="308.8" class="st3" width="30.9" height="10.3"/>
	<text transform="matrix(1 0 0 1 46.8619 330.8907)" class="st8 st9 st11">Nigeria</text>
	<rect x="84.8" y="321.2" class="st2" width="11.3" height="10.3"/>
	<rect x="96.1" y="321.2" class="st3" width="21.1" height="10.3"/>
	<text transform="matrix(1 0 0 1 38.3052 343.2985)" class="st8 st9 st11">Maldives</text>
	<rect x="84.8" y="333.7" class="st2" width="1.4" height="10.3"/>
	<rect x="86.2" y="333.7" class="st3" width="18.3" height="10.3"/>
	<text transform="matrix(1 0 0 1 -56.8647 355.7067)" class="st8 st9 st11">                               Tanzania</text>
	<rect x="84.8" y="346.1" class="st2" width="0" height="10.3"/>
	<rect x="84.8" y="346.1" class="st3" width="14.1" height="10.3"/>
	<text transform="matrix(1 0 0 1 53.5757 368.1149)" class="st8 st9 st11">Benin</text>
	<rect x="84.8" y="358.5" class="st2" width="0" height="10.3"/>
	<rect x="84.8" y="358.5" class="st3" width="12.7" height="10.3"/>
	<text transform="matrix(1 0 0 1 62.7545 380.5226)" class="st8 st9 st11">Iraq</text>
	<rect x="84.8" y="370.9" class="st2" width="1.4" height="10.3"/>
	<rect x="86.2" y="370.9" class="st3" width="9.8" height="10.3"/>
	<text transform="matrix(1 0 0 1 57.856 392.9303)" class="st8 st9 st11">Togo</text>
	<rect x="84.8" y="383.3" class="st2" width="0" height="10.3"/>
	<rect x="84.8" y="383.3" class="st3" width="4.2" height="10.3"/>
	<text transform="matrix(1 0 0 1 55.2701 405.3385)" class="st8 st9 st11">Niger</text>
	<rect x="84.8" y="395.7" class="st2" width="0" height="10.3"/>
	<rect x="84.8" y="395.7" class="st3" width="2.8" height="10.3"/>
	<text transform="matrix(1 0 0 1 48.6822 417.7467)" class="st8 st9 st11">Ghana</text>
	<rect x="84.8" y="408.1" class="st2" width="0" height="10.3"/>
	<rect x="84.8" y="408.1" class="st3" width="2.8" height="10.3"/>
	<text transform="matrix(1 0 0 1 43.1773 430.1544)" class="st8 st9 st11">Uganda</text>
	<rect x="84.8" y="420.5" class="st2" width="1.4" height="10.3"/>
	<rect x="84.8" y="420.5" class="st3" width="0" height="10.3"/>
	<text transform="matrix(1 0 0 1 30.3511 442.5621)" class="st8 st9 st11">Cameroon</text>
	<rect x="84.8" y="432.9" class="st2" width="0" height="10.3"/>
	<rect x="84.8" y="432.9" class="st3" width="1.4" height="10.3"/>
	<rect x="2.8" y="45.5" class="st2" width="7.2" height="7.2"/>
	<rect x="100.1" y="45.5" class="st3" width="7.2" height="7.2"/>
	<text transform="matrix(1 0 0 1 87.4459 68.4288)" class="st0 st9 st12">73</text>
	<text transform="matrix(1 0 0 1 190.0298 68.4288)" class="st0 st9 st12">89</text>
	<text transform="matrix(1 0 0 1 87.4459 80.8365)" class="st0 st9 st12">39</text>
	<text transform="matrix(1 0 0 1 142.2476 80.8365)" class="st0 st9 st12">95</text>
	<text transform="matrix(1 0 0 1 87.4459 93.2448)" class="st0 st9 st12">31</text>
	<text transform="matrix(1 0 0 1 131.0025 93.2448)" class="st0 st9 st12">90</text>
	<text transform="matrix(1 0 0 1 87.4459 105.6525)" class="st0 st9 st12">46</text>
	<text transform="matrix(1 0 0 1 152.0865 105.6525)" class="st0 st9 st12">73</text>
	<text transform="matrix(1 0 0 1 87.4459 118.0602)" class="st0 st9 st12">30</text>
	<text transform="matrix(1 0 0 1 129.5972 118.0602)" class="st0 st9 st12">87</text>
	<text transform="matrix(1 0 0 1 87.4459 130.4684)" class="st0 st9 st12">33</text>
	<text transform="matrix(1 0 0 1 133.814 130.4684)" class="st0 st9 st12">83</text>
	<text transform="matrix(1 0 0 1 87.4459 142.8766)" class="st0 st9 st12">45</text>
	<text transform="matrix(1 0 0 1 150.6802 142.8766)" class="st0 st9 st12">64</text>
	<text transform="matrix(1 0 0 1 87.4459 155.2843)" class="st0 st9 st12">14</text>
	<text transform="matrix(1 0 0 1 107.1158 155.2843)" class="st0 st9 st12">87</text>
	<text transform="matrix(1 0 0 1 87.4459 167.692)" class="st0 st9 st12">99</text>
	<text transform="matrix(1 0 0 1 87.4459 180.1002)" class="st0 st9 st12">8</text>
	<text transform="matrix(1 0 0 1 98.6822 180.1002)" class="st0 st9 st12">83</text>
	<text transform="matrix(1 0 0 1 87.4459 192.5084)" class="st0 st9 st12">30</text>
	<text transform="matrix(1 0 0 1 129.5972 192.5084)" class="st0 st9 st12">52</text>
	<text transform="matrix(1 0 0 1 87.4459 204.9166)" class="st0 st9 st12">16</text>
	<text transform="matrix(1 0 0 1 109.9263 204.9166)" class="st0 st9 st12">65</text>
	<text transform="matrix(1 0 0 1 87.4459 217.3239)" class="st0 st9 st12">11</text>
	<text transform="matrix(1 0 0 1 102.899 217.3239)" class="st0 st9 st12">68</text>
	<text transform="matrix(1 0 0 1 87.4459 229.7321)" class="st0 st9 st12">49</text>
	<text transform="matrix(1 0 0 1 87.4459 242.1403)" class="st0 st9 st12">10</text>
	<text transform="matrix(1 0 0 1 101.4927 242.1403)" class="st0 st9 st12">37</text>
	<text transform="matrix(1 0 0 1 87.4459 254.548)" class="st0 st9 st12">16</text>
	<text transform="matrix(1 0 0 1 109.9263 254.548)" class="st0 st9 st12">25</text>
	<text transform="matrix(1 0 0 1 87.4459 266.9557)" class="st0 st9 st12">7</text>
	<text transform="matrix(1 0 0 1 97.2759 266.9557)" class="st0 st9 st12">34</text>
	<text transform="matrix(1 0 0 1 87.4459 279.3639)" class="st0 st9 st12">15</text>
	<text transform="matrix(1 0 0 1 108.5211 279.3639)" class="st0 st9 st12">19</text>
	<text transform="matrix(1 0 0 1 87.4459 291.7721)" class="st0 st9 st12">32</text>
	<text transform="matrix(1 0 0 1 91.6548 304.1798)" class="st0 st9 st12">21</text>
	<text transform="matrix(1 0 0 1 88.8433 316.5875)" class="st0 st9 st12">22</text>
	<text transform="matrix(1 0 0 1 87.4459 328.9957)" class="st0 st9 st12">8</text>
	<text transform="matrix(1 0 0 1 98.6822 328.9957)" class="st0 st9 st12">15</text>
	<text transform="matrix(1 0 0 1 88.8433 341.4039)" class="st0 st9 st12">13</text>
	<text transform="matrix(1 0 0 1 87.4459 353.8116)" class="st0 st9 st12">10</text>
	<text transform="matrix(1 0 0 1 87.4459 366.2194)" class="st0 st9 st12">9</text>
	<text transform="matrix(1 0 0 1 88.8433 378.6276)" class="st0 st9 st12">7</text>
	<text transform="matrix(1 0 0 1 2.8443 459.7965)" class="st13 st14 st12">Data last updated in May 2023</text>
	<text transform="matrix(1 0 0 1 2.8443 469.1022)" class="st15 st9 st16">Chart:</text>
	<text transform="matrix(1 0 0 1 19.7437 469.1022)" class="st15 st9 st16">Katrina Ventura</text>
	<text transform="matrix(1 0 0 1 60.3638 469.1022)" class="st15 st9 st16">•</text>
	<text transform="matrix(1 0 0 1 63.7701 469.1022)" class="st15 st9 st16">Source:</text>
	<text transform="matrix(1 0 0 1 84.7838 469.1022)" class="st15 st9 st16">UNICEF</text>
	<text transform="matrix(1 0 0 1 107.3677 469.1022)" class="st15 st9 st16">•</text>
	<text transform="matrix(1 0 0 1 110.774 469.1022)" class="st15 st9 st16">Created with</text>
	<text transform="matrix(1 0 0 1 144.1138 469.1022)" class="st15 st9 st16">Datawrapper</text>
</g>
</svg>
